HIERARCHY
ROOT Hips
{
 OFFSET 0.000000 0.000000 0.000000
 CHANNELS 6 Xposition Yposition Zposition Yrotation Xrotation Zrotation
 JOINT Chest
 {
  OFFSET 0.000000 9.585900 0.002600
  CHANNELS 3 Yrotation Xrotation Zrotation
  JOINT Chest2
  {
   OFFSET 0.000000 9.601200 -0.005300
   CHANNELS 3 Yrotation Xrotation Zrotation
   JOINT Chest3
   {
    OFFSET 0.000000 9.561800 0.000000
    CHANNELS 3 Yrotation Xrotation Zrotation
    JOINT Chest4
    {
     OFFSET 0.000000 9.552100 0.000000
     CHANNELS 3 Yrotation Xrotation Zrotation
     JOINT Neck
     {
      OFFSET 0.000000 14.453000 0.000000
      CHANNELS 3 Yrotation Xrotation Zrotation
      JOINT Head
      {
       OFFSET 0.000000 8.936500 -0.011300
       CHANNELS 3 Yrotation Xrotation Zrotation
       End Site
       {
        OFFSET 0.000000 17.073600 -0.006000
       }
      }
     }
     JOINT RightCollar
     {
      OFFSET -2.921100 9.558500 0.000000
      CHANNELS 3 Yrotation Xrotation Zrotation
      JOINT RightShoulder
      {
       OFFSET -13.519700 0.000000 0.000000
       CHANNELS 3 Yrotation Xrotation Zrotation
       JOINT RightElbow
       {
        OFFSET 0.000000 -29.696600 0.000000
        CHANNELS 3 Yrotation Xrotation Zrotation
        JOINT RightWrist
        {
         OFFSET 0.000000 -24.004700 0.000000
         CHANNELS 3 Yrotation Xrotation Zrotation
         End Site
         {
          OFFSET 0.000000 -17.728500 0.000000
         }
        }
       }
      }
     }
     JOINT LeftCollar
     {
      OFFSET 2.921100 9.558500 0.000000
      CHANNELS 3 Yrotation Xrotation Zrotation
      JOINT LeftShoulder
      {
       OFFSET 13.519700 0.000000 0.000000
       CHANNELS 3 Yrotation Xrotation Zrotation
       JOINT LeftElbow
       {
        OFFSET 0.000000 -29.696600 0.000000
        CHANNELS 3 Yrotation Xrotation Zrotation
        JOINT LeftWrist
        {
         OFFSET 0.000000 -24.004700 0.000000
         CHANNELS 3 Yrotation Xrotation Zrotation
         End Site
         {
          OFFSET 0.000000 -17.728500 0.000000
         }
        }
       }
      }
     }
    }
   }
  }
 }
 JOINT RightHip
 {
  OFFSET -7.771700 -0.012900 -0.001300
  CHANNELS 3 Yrotation Xrotation Zrotation
  JOINT RightKnee
  {
   OFFSET 0.000000 -40.869800 0.001200
   CHANNELS 3 Yrotation Xrotation Zrotation
   JOINT RightAnkle
   {
    OFFSET 0.000000 -39.717900 0.002100
    CHANNELS 3 Yrotation Xrotation Zrotation
    JOINT RightToe
    {
     OFFSET 0.000000 -4.965400 11.033500
     CHANNELS 3 Yrotation Xrotation Zrotation
     End Site
     {
      OFFSET 0.000000 -1.423100 5.872300
     }
    }
   }
  }
 }
 JOINT LeftHip
 {
  OFFSET 7.771700 -0.012900 -0.001300
  CHANNELS 3 Yrotation Xrotation Zrotation
  JOINT LeftKnee
  {
   OFFSET 0.000000 -40.869800 0.001200
   CHANNELS 3 Yrotation Xrotation Zrotation
   JOINT LeftAnkle
   {
    OFFSET 0.000000 -39.717900 0.002100
    CHANNELS 3 Yrotation Xrotation Zrotation
    JOINT LeftToe
    {
     OFFSET 0.000000 -4.965400 11.033500
     CHANNELS 3 Yrotation Xrotation Zrotation
     End Site
     {
      OFFSET 0.000000 -1.423100 5.872300
     }
    }
   }
  }
 }
}
MOTION
Frames: 9
Frame Time: 0.008333
0.000000 85.388000 0.000000 0.000000 -5.767877 0.000000 0.000000 11.653817 0.000000 0.000000 -5.885947 0.000000 0.000000 -0.000000 0.000000 0.000000 -0.000000 0.000000 0.000000 12.528835 0.000000 0.000000 0.711642 0.000000 0.000000 -0.000000 0.000000 0.000000 0.000000 -90.000000 0.000000 -2.309062 0.000000 0.000000 2.309062 0.000000 0.000000 -0.000000 0.000000 0.000000 -0.000000 90.000000 0.000000 -2.309062 0.000000 0.000000 2.309062 0.000000 0.000000 8.520406 0.000000 0.000000 1.905762 0.000000 -0.000000 -4.658285 0.000000 0.000000 -0.000000 0.000000 0.000000 8.520406 0.000000 0.000000 1.905762 0.000000 -0.000000 -4.658285 0.000000 0.000000 -0.000000 0.000000
-142.782174 51.584355 -59.712339 176.803396 -19.971372 0.150022 -1.487374 12.270869 0.875818 -0.115808 0.925498 0.093283 -0.197794 1.567316 0.191170 -1.292477 11.136561 1.299812 -2.971478 16.689921 -1.357647 -2.790716 -8.178149 -0.815530 2.431331 16.857292 10.015929 31.765129 -4.480140 -29.666814 78.001660 -73.142988 -107.938224 1.184548 9.448791 9.353430 0.829544 15.328467 -12.819868 -32.123896 -1.625694 28.975474 -11.239211 -75.586369 49.542400 12.763487 7.614773 -17.492604 -10.582262 -62.728527 4.871226 -64.475741 82.600109 -72.602983 -1.724367 -3.965574 7.288487 0.260095 -0.685987 0.115865 10.829582 -60.922636 -8.074479 35.696470 86.554403 41.548172 -3.527750 -13.132698 0.726834 0.095789 0.289033 0.046354
-142.779925 51.584213 -59.712689 176.802613 -19.971211 0.149482 -1.486861 12.268223 0.882990 -0.115894 0.915979 0.113738 -0.196730 1.563810 0.193000 -1.284792 11.125137 1.311974 -2.996820 16.711155 -1.374997 -2.820575 -8.157943 -0.779335 2.427429 16.865738 10.023902 31.773799 -4.530601 -29.624933 77.845916 -73.092293 -107.777457 1.176802 9.450001 9.361952 0.833703 15.331095 -12.815978 -32.143312 -1.625093 28.938010 -11.420257 -75.585301 49.735384 12.762030 7.619231 -17.479077 -10.585846 -62.728877 4.875367 -64.512514 82.592381 -72.634134 -1.723295 -3.966463 7.279282 0.266994 -0.684549 0.119131 10.823806 -60.923655 -8.068817 35.633417 86.557558 41.484749 -3.517193 -13.131007 0.724358 0.090252 0.285685 0.044793
-142.778513 51.583744 -59.712390 176.789194 -19.966691 0.159047 -1.474333 12.254191 0.904407 -0.115102 0.913922 0.114470 -0.195638 1.560389 0.194291 -1.281812 11.112801 1.324317 -3.019784 16.732613 -1.392880 -2.883980 -8.124706 -0.678836 2.424286 16.875041 10.030831 31.770005 -4.539742 -29.617931 77.802973 -73.084516 -107.739332 1.194150 9.456333 9.374963 0.841565 15.333145 -12.812685 -32.150882 -1.636874 28.927208 -11.430188 -75.583916 49.729127 12.748852 7.600273 -17.470528 -10.573532 -62.738112 4.872625 -64.557232 82.582551 -72.672659 -1.722994 -3.962642 7.264374 0.280811 -0.685460 0.125299 10.838520 -60.927083 -8.075812 35.545316 86.562677 41.398336 -3.511722 -13.128559 0.720599 0.094235 0.282340 0.044134
-142.779534 51.583487 -59.712893 176.779345 -19.966926 0.182371 -1.471370 12.227875 0.935219 -0.115209 0.925584 0.089707 -0.195027 1.557548 0.195706 -1.277412 11.102533 1.337510 -3.043775 16.750318 -1.387187 -2.910201 -8.109603 -0.666812 2.424176 16.884213 10.035539 31.765027 -4.546551 -29.610338 77.768748 -73.078595 -107.708911 1.213961 9.463215 9.386516 0.848389 15.335082 -12.811822 -32.148047 -1.643472 28.964394 -11.306530 -75.600998 49.576824 12.728577 7.549491 -17.474724 -10.546661 -62.747532 4.834868 -64.578097 82.589066 -72.693961 -1.702284 -3.956073 7.257789 0.270596 -0.693516 0.122695 10.877917 -60.920909 -8.115090 35.523139 86.560721 41.376284 -3.509674 -13.121885 0.720236 0.096450 0.276130 0.042516
-142.780831 51.583418 -59.714036 176.764526 -19.971986 0.208936 -1.464068 12.218825 0.938888 -0.112163 0.923937 0.089734 -0.194303 1.554844 0.197499 -1.278080 11.092760 1.350945 -3.063354 16.766145 -1.381125 -2.930312 -8.097166 -0.671045 2.428890 16.892850 10.038809 31.758711 -4.548117 -29.602723 77.720775 -73.065101 -107.666397 1.195960 9.460930 9.386092 0.855108 15.338867 -12.812402 -32.163155 -1.639421 28.941933 -11.439338 -75.608117 49.707801 12.730995 7.531923 -17.485752 -10.507397 -62.750014 4.794832 -64.595229 82.591311 -72.713156 -1.694132 -3.955144 7.251625 0.267854 -0.692805 0.122729 10.911945 -60.907044 -8.148057 35.529483 86.555142 41.379307 -3.507711 -13.122104 0.719534 0.096751 0.275806 0.039704
-142.780643 51.583176 -59.714765 176.758499 -19.976084 0.223103 -1.462294 12.215752 0.939494 -0.114357 0.903934 0.124522 -0.194320 1.564031 0.178148 -1.275900 11.081266 1.361878 -3.085241 16.781141 -1.374509 -2.928935 -8.087021 -0.707079 2.437142 16.902668 10.042834 31.752995 -4.546129 -29.596128 77.638393 -73.035041 -107.586900 1.158965 9.449922 9.389796 0.864988 15.346753 -12.810783 -32.180543 -1.642000 28.952366 -11.411344 -75.617912 49.667659 12.740803 7.533298 -17.493801 -10.502902 -62.751170 4.782524 -64.594729 82.597731 -72.720395 -1.679978 -3.948384 7.249560 0.253001 -0.694775 0.118885 10.922237 -60.898166 -8.166178 35.485094 86.554075 41.338463 -3.498220 -13.123539 0.709625 0.093061 0.277994 0.040358
-142.777009 51.581586 -59.711738 176.729368 -19.958705 0.223305 -1.433334 12.191523 0.963345 -0.114164 0.907104 0.117884 -0.193787 1.549399 0.200356 -1.276535 11.070012 1.372892 -3.107811 16.795724 -1.370673 -2.955869 -8.072564 -0.696434 2.445040 16.913707 10.047352 31.744327 -4.535604 -29.597253 77.650835 -73.035033 -107.612563 1.149259 9.449035 9.403775 0.877706 15.356913 -12.808900 -32.202880 -1.644632 28.963959 -11.291323 -75.625928 49.537075 12.748706 7.540616 -17.496151 -10.511855 -62.769020 4.816727 -64.606676 82.586575 -72.729926 -1.643206 -3.972649 7.247087 0.226555 -0.666981 0.111717 10.925028 -60.915466 -8.146317 35.506783 86.551131 41.359778 -3.478405 -13.123933 0.708113 0.077609 0.277977 0.032659
-142.776389 51.580992 -59.711707 176.715878 -19.960637 0.237841 -1.428875 12.161682 1.006945 -0.113060 0.919619 0.090126 -0.193365 1.532945 0.224191 -1.278345 11.077569 1.362937 -3.135431 16.805192 -1.369911 -3.022954 -8.052403 -0.630491 2.449489 16.924396 10.048724 31.727087 -4.512033 -29.613799 77.711972 -73.052594 -107.675306 1.141426 9.438298 9.415146 0.890185 15.365203 -12.810260 -32.223566 -1.643512 28.968181 -11.207841 -75.637156 49.443911 12.740979 7.523948 -17.519326 -10.491717 -62.771931 4.800878 -64.599537 82.588620 -72.721489 -1.641443 -3.964611 7.235901 0.229380 -0.664944 0.114068 10.941292 -60.909882 -8.157475 35.526333 86.548144 41.376957 -3.476210 -13.124524 0.705155 0.074666 0.279757 0.032451
